<?xml version="1.0" standalone="no"?>
<!DOCTYPE svg PUBLIC "-//W3C//DTD SVG 20010904//EN"
 "http://www.w3.org/TR/2001/REC-SVG-20010904/DTD/svg10.dtd">
<svg version="1.0" xmlns="http://www.w3.org/2000/svg"
 width="320.000000pt" height="320.000000pt" viewBox="0 0 320.000000 320.000000"
 preserveAspectRatio="none">
 <!--xMidYMid meet-->

<g transform="translate(0.000000,320.000000) scale(0.100000,-0.100000)"
fill="#000000" stroke="none">
<path d="M200 1595 l0 -675 1400 0 1400 0 0 675 0 675 -1400 0 -1400 0 0 -675z
m2750 0 l0 -625 -1350 0 -1350 0 0 625 0 625 1350 0 1350 0 0 -625z"/>
<path d="M630 2131 c-101 -31 -166 -110 -177 -215 -11 -105 41 -200 137 -249
48 -25 63 -28 117 -24 41 3 77 13 107 30 l44 25 28 -29 c19 -19 31 -26 38 -19
7 7 1 19 -17 38 l-28 29 27 52 c54 104 38 217 -41 297 -61 61 -159 88 -235 65z
m160 -53 c61 -31 102 -92 108 -160 4 -57 -9 -121 -33 -152 -13 -18 -15 -17
-41 13 -21 25 -29 29 -41 20 -12 -10 -9 -17 18 -45 l31 -32 -42 -22 c-35 -18
-56 -21 -111 -18 -58 3 -74 8 -106 34 -125 101 -108 293 32 367 45 24 132 21
185 -5z"/>
<path d="M1030 2120 c0 -13 7 -20 20 -20 19 0 20 -7 20 -157 0 -180 12 -222
71 -264 46 -33 163 -35 205 -3 66 48 69 59 72 250 3 164 4 174 23 174 12 0 19
7 19 20 0 14 -7 20 -22 20 -51 0 -53 -7 -58 -205 l-5 -187 -31 -28 c-63 -55
-167 -46 -211 19 -22 32 -23 44 -23 202 0 182 -5 199 -56 199 -17 0 -24 -5
-24 -20z"/>
<path d="M1555 2130 c-9 -15 4 -30 25 -30 19 0 20 -11 22 -217 l3 -218 135 0
135 0 3 38 c2 28 0 37 -12 37 -10 0 -16 -9 -16 -25 l0 -26 -107 3 -108 3 -3
93 -3 92 96 0 c88 0 95 1 95 20 0 19 -7 20 -95 20 l-95 0 0 90 0 90 100 0 c93
0 100 -1 100 -20 0 -11 7 -20 15 -20 21 0 21 66 -1 74 -27 10 -282 7 -289 -4z"/>
<path d="M2073 2129 c-48 -14 -83 -62 -83 -113 0 -56 24 -81 129 -136 91 -47
115 -77 105 -130 -15 -70 -115 -95 -188 -45 -21 14 -42 23 -47 20 -20 -13 -7
-33 40 -58 113 -62 231 -9 231 103 0 64 -24 92 -120 140 -121 61 -146 112 -84
168 48 42 164 22 164 -29 0 -13 7 -19 21 -19 18 0 20 4 14 28 -9 38 -32 60
-74 72 -42 12 -65 11 -108 -1z"/>
<path d="M2362 2128 c-7 -7 -12 -25 -12 -40 0 -21 5 -28 20 -28 13 0 20 7 20
20 0 18 7 20 70 20 l70 0 0 -220 c0 -213 1 -220 20 -220 19 0 20 7 20 220 l0
221 73 -3 c56 -2 72 -6 72 -18 0 -8 8 -16 18 -18 13 -3 17 3 17 25 0 50 -10
53 -200 53 -124 0 -180 -4 -188 -12z"/>
<path d="M637 1543 c-13 -12 -7 -22 16 -25 22 -3 22 -3 22 -208 l0 -205 -23
-3 c-44 -7 -16 -27 41 -30 46 -2 57 0 57 13 0 8 -9 15 -20 15 -19 0 -20 7 -20
206 0 197 1 206 20 211 11 3 20 12 20 19 0 10 -15 14 -53 14 -30 0 -57 -3 -60
-7z"/>
<path d="M1139 1523 c-130 -67 -174 -213 -102 -345 100 -185 367 -160 438 41
73 208 -141 402 -336 304z m188 -24 c38 -14 81 -56 105 -103 31 -60 23 -161
-17 -217 -44 -63 -105 -91 -181 -87 -82 5 -132 38 -168 109 -56 114 -19 235
89 292 35 19 130 22 172 6z"/>
<path d="M1537 1543 c-4 -3 -7 -105 -7 -225 0 -211 -1 -218 -20 -218 -11 0
-20 -7 -20 -15 0 -18 50 -21 68 -3 9 9 12 69 12 207 l0 195 47 -64 c194 -270
257 -351 272 -348 14 3 16 30 18 218 1 118 2 219 3 223 0 5 19 7 43 5 l42 -3
5 -220 5 -220 135 0 135 0 3 38 c2 27 -1 37 -12 37 -8 0 -16 -10 -18 -22 -3
-22 -7 -23 -108 -23 l-105 0 -3 93 -3 92 96 0 c88 0 95 1 95 20 0 19 -7 20
-95 20 l-95 0 0 95 0 96 98 -3 c92 -3 97 -4 100 -25 2 -13 10 -23 18 -23 11 0
14 10 12 38 l-3 37 -179 3 c-123 2 -183 -1 -192 -9 -11 -9 -14 -54 -14 -212
l0 -200 -27 40 c-96 140 -279 383 -288 383 -7 0 -15 -3 -18 -7z"/>
<path d="M2368 1544 c-11 -11 1 -24 23 -24 18 0 19 -9 19 -225 0 -193 2 -225
15 -225 12 0 15 18 15 105 l0 105 59 0 c69 0 69 0 131 -119 41 -78 48 -86 74
-86 16 0 31 6 34 13 2 7 -5 12 -17 12 -16 0 -31 20 -67 92 -34 68 -43 93 -33
97 29 9 68 60 75 97 9 50 -12 111 -49 138 -24 18 -45 21 -150 24 -67 2 -125 0
-129 -4z m237 -38 c41 -17 55 -42 55 -95 0 -28 -7 -48 -24 -68 -23 -27 -29
-28 -108 -28 l-83 0 -3 89 c-2 49 -1 95 2 103 7 18 116 17 161 -1z"/>
</g>
</svg>
